HIERARCHY
ROOT Hips
{
	OFFSET 0.000000 0.000000 0.000000
	CHANNELS 6 Xposition Yposition Zposition Zrotation Yrotation Xrotation 
	JOINT LHipJoint
	{
		OFFSET 0.000000 0.000000 0.000000
		CHANNELS 3 Zrotation Yrotation Xrotation
		JOINT LeftUpLeg
		{
			OFFSET 1.363060 -1.794630 0.839290
			CHANNELS 3 Zrotation Yrotation Xrotation
			JOINT LeftLeg
			{
				OFFSET 2.448110 -6.726130 0.000000
				CHANNELS 3 Zrotation Yrotation Xrotation
				JOINT LeftFoot
				{
					OFFSET 2.562200 -7.039590 0.000000
					CHANNELS 3 Zrotation Yrotation Xrotation
					JOINT LeftToeBase
					{
						OFFSET 0.157640 -0.433110 2.322550
						CHANNELS 3 Zrotation Yrotation Xrotation
						End Site
						{
							OFFSET 0.000000 0.000000 0.000000
						}
					}
				}
			}
		}
	}
	JOINT RHipJoint
	{
		OFFSET 0.000000 0.000000 0.000000
		CHANNELS 3 Zrotation Yrotation Xrotation
		JOINT RightUpLeg
		{
			OFFSET -1.305520 -1.794630 0.839290
			CHANNELS 3 Zrotation Yrotation Xrotation
			JOINT RightLeg
			{
				OFFSET -2.542530 -6.985550 0.000000
				CHANNELS 3 Zrotation Yrotation Xrotation
				JOINT RightFoot
				{
					OFFSET -2.568260 -7.056230 0.000000
					CHANNELS 3 Zrotation Yrotation Xrotation
					JOINT RightToeBase
					{
						OFFSET -0.164730 -0.452590 2.363150
						CHANNELS 3 Zrotation Yrotation Xrotation
						End Site
						{
							OFFSET 0.000000 0.000000 0.000000
						}
					}
				}
			}
		}
	}
	JOINT LowerBack
	{
		OFFSET 0.000000 0.000000 0.000000
		CHANNELS 3 Zrotation Yrotation Xrotation
		JOINT Spine
		{
			OFFSET 0.028270 2.035590 -0.193380
			CHANNELS 3 Zrotation Yrotation Xrotation
			JOINT Spine1
			{
				OFFSET 0.056720 2.048850 -0.042750
				CHANNELS 3 Zrotation Yrotation Xrotation
				JOINT Neck
				{
					OFFSET 0.000000 0.000000 0.000000
					CHANNELS 3 Zrotation Yrotation Xrotation
					JOINT Neck1
					{
						OFFSET -0.054170 1.746240 0.172020
						CHANNELS 3 Zrotation Yrotation Xrotation
						JOINT Head
						{
							OFFSET 0.104070 1.761360 -0.123970
							CHANNELS 3 Zrotation Yrotation Xrotation
							End Site
							{
								OFFSET 0.000000 0.000000 0.000000
							}
						}
					}
				}
				JOINT LeftShoulder
				{
					OFFSET 0.000000 0.000000 0.000000
					CHANNELS 3 Zrotation Yrotation Xrotation
					JOINT LeftArm
					{
						OFFSET 3.362410 1.200890 -0.311210
						CHANNELS 3 Zrotation Yrotation Xrotation
						JOINT LeftForeArm
						{
							OFFSET 4.983000 -0.000000 -0.000000
							CHANNELS 3 Zrotation Yrotation Xrotation
							JOINT LeftHand
							{
								OFFSET 3.483560 -0.000000 -0.000000
								CHANNELS 3 Zrotation Yrotation Xrotation
								JOINT LeftFingerBase
								{
									OFFSET 0.000000 0.000000 0.000000
									CHANNELS 3 Zrotation Yrotation Xrotation
									JOINT LeftHandIndex1
									{
										OFFSET 0.715260 -0.000000 -0.000000
										CHANNELS 3 Zrotation Yrotation Xrotation
										End Site
										{
											OFFSET 0.000000 0.000000 0.000000
										}
									}
								}
								JOINT LThumb
								{
									OFFSET 0.000000 0.000000 0.000000
									CHANNELS 3 Zrotation Yrotation Xrotation
									End Site
									{
										OFFSET 0.000000 0.000000 0.000000
									}
								}
							}
						}
					}
				}
				JOINT RightShoulder
				{
					OFFSET 0.000000 0.000000 0.000000
					CHANNELS 3 Zrotation Yrotation Xrotation
					JOINT RightArm
					{
						OFFSET -3.136600 1.374050 -0.404650
						CHANNELS 3 Zrotation Yrotation Xrotation
						JOINT RightForeArm
						{
							OFFSET -5.241900 -0.000000 -0.000000
							CHANNELS 3 Zrotation Yrotation Xrotation
							JOINT RightHand
							{
								OFFSET -3.444170 -0.000000 -0.000000
								CHANNELS 3 Zrotation Yrotation Xrotation
								JOINT RightFingerBase
								{
									OFFSET 0.000000 0.000000 0.000000
									CHANNELS 3 Zrotation Yrotation Xrotation
									JOINT RightHandIndex1
									{
										OFFSET -0.622530 -0.000000 -0.000000
										CHANNELS 3 Zrotation Yrotation Xrotation
										End Site
										{
											OFFSET 0.000000 0.000000 0.000000
										}
									}
								}
								JOINT RThumb
								{
									OFFSET 0.000000 0.000000 0.000000
									CHANNELS 3 Zrotation Yrotation Xrotation
									End Site
									{
										OFFSET 0.000000 0.000000 0.000000
									}
								}
							}
						}
					}
				}
			}
		}
	}
}
MOTION
Frames: 10
Frame Time: 0.008333
1.972515 15.593005 0.342642 96.755604 87.318870 138.028876 -10.580627 -3.636057 -1.710881 -12.114606 -5.355063 -72.172730 1.453375 5.297984 82.115807 4.829995 20.932247 -27.830684 -6.736000 -0.000000 -4.276500 7.751628 -0.479300 -3.803872 19.110035 -6.727833 -64.912257 2.386849 -6.276348 63.111544 -2.774876 -4.294101 -29.714773 2.456000 0.000000 -28.803900 10.728429 -0.879327 8.625833 2.308296 -0.826095 -0.849057 -2.845592 -0.858205 -0.158317 5.764802 -9.992116 -6.187269 -0.615607 -0.030971 -0.224035 0.000000 0.000000 0.000000 11.607448 7.887075 2.376998 -72.846699 12.066065 26.514624 -0.205629 -83.295562 0.055342 -12.782102 1.798192 -0.179910 0.221675 0.219897 0.000000 0.000000 0.000000 0.000000 0.000000 0.000000 0.000000 -2.907375 -4.291651 -0.349186 58.697442 14.784828 2.731042 179.491357 78.379497 179.977758 -3.437756 5.280228 -0.178457 0.089106 -0.531553 -0.000000 0.000000 0.000000 0.000000 0.000000 0.000000 0.000000 
2.148116 15.611816 0.353385 102.403084 87.634068 143.760758 -10.079576 -3.634045 -1.618911 -12.324409 -5.965788 -74.517996 1.361297 5.325677 81.243010 4.863417 20.471589 -28.003484 -6.625299 0.000000 -4.392600 8.019772 -0.376742 -4.078375 19.149083 -7.235873 -63.835183 2.463006 -6.253576 62.708888 -2.695853 -4.130729 -29.462816 2.373600 -0.000001 -30.879801 10.604544 -0.750472 8.891084 2.318193 -0.656251 -0.776331 -2.707669 -0.691806 -0.166386 5.541999 -9.973698 -6.144388 -0.501879 -0.022947 -0.218996 0.000000 0.000000 0.000000 11.406065 8.002448 2.399976 -72.409293 13.349526 27.117609 -0.197351 -83.449365 0.053820 -12.721181 1.809516 -0.181047 0.223083 0.213912 0.000000 0.000000 0.000000 0.000000 0.000000 0.000000 0.000000 -3.529088 -4.178028 -0.324157 56.923023 15.207754 2.550399 179.434957 77.313526 179.977258 -3.529103 5.165935 -0.179962 0.096352 -0.533472 -0.000000 0.000000 0.000000 0.000000 0.000000 0.000000 0.000000 
2.328107 15.627270 0.362111 109.715432 88.065294 151.128078 -9.542504 -3.507903 -1.514046 -12.559335 -6.503055 -76.775351 1.228138 5.347656 80.081733 4.863816 19.812276 -28.093337 -6.426100 -0.000000 -4.721000 8.338692 -0.221049 -4.357112 19.217796 -7.737121 -62.701599 2.529789 -6.209827 62.337643 -2.601371 -3.912598 -29.165753 2.271900 -0.000000 -33.045900 10.534745 -0.582892 9.141672 2.334105 -0.453391 -0.705719 -2.579320 -0.493125 -0.170594 5.338755 -9.975342 -6.120991 -0.400454 -0.015610 -0.217794 0.000000 0.000000 0.000000 11.215785 8.157180 2.410088 -71.963606 14.661992 27.723000 -0.185505 -83.687996 0.052365 -12.666392 1.803462 -0.180291 0.225350 0.208354 0.000000 0.000000 0.000000 0.000000 0.000000 0.000000 0.000000 -4.061561 -4.071375 -0.281805 55.017983 15.572528 2.328939 179.377861 76.306065 179.976472 -3.666184 5.008066 -0.181963 0.105162 -0.533672 0.000000 0.000000 0.000000 0.000000 0.000000 0.000000 0.000000 
2.512753 15.639336 0.368817 118.745653 88.632090 160.184452 -9.002271 -3.221687 -1.389875 -12.843264 -6.946054 -78.942277 1.050200 5.382253 78.617243 4.826449 18.945029 -28.078453 -6.130900 0.000000 -5.332601 8.682016 0.013170 -4.648340 19.303909 -8.220956 -61.498332 2.577574 -6.120526 62.006073 -2.491873 -3.628441 -28.832953 2.151600 -0.000001 -35.239800 10.462359 -0.354409 9.381993 2.339878 -0.201533 -0.635514 -2.460777 -0.246644 -0.168068 5.157186 -10.000692 -6.115406 -0.311690 -0.008999 -0.219925 0.000000 0.000000 0.000000 11.040890 8.363613 2.406724 -71.512072 15.988836 28.335051 -0.171477 -83.992541 0.050950 -12.625948 1.778991 -0.177744 0.228565 0.202983 0.000000 0.000000 0.000000 0.000000 0.000000 0.000000 0.000000 -4.497924 -3.969907 -0.222239 53.004707 15.897125 2.083882 179.320226 75.371910 179.975614 -3.818732 4.819525 -0.183358 0.114809 -0.532347 -0.000000 0.000000 0.000000 0.000000 0.000000 0.000000 0.000000 
2.702270 15.648045 0.373591 128.982712 89.305984 170.418164 -8.539367 -2.779093 -1.233856 -13.216671 -7.297564 -81.003469 0.821694 5.449152 76.832017 4.749232 17.884852 -27.936024 -5.741700 -0.000000 -6.276100 8.972843 0.317371 -4.960225 19.370038 -8.695997 -60.225823 2.595745 -5.964877 61.724612 -2.369864 -3.272689 -28.475072 2.014700 -0.000000 -37.421700 10.275676 -0.059713 9.608939 2.309628 0.097643 -0.567084 -2.347437 0.045869 -0.157146 4.999331 -10.052294 -6.125876 -0.234652 -0.003049 -0.224969 0.000000 0.000000 0.000000 10.887968 8.623571 2.389868 -71.055794 17.313085 28.956873 -0.156522 -84.345566 0.049535 -12.607194 1.735870 -0.173307 0.232683 0.197568 0.000000 0.000000 0.000000 0.000000 0.000000 0.000000 0.000000 -4.836942 -3.879963 -0.146425 50.916240 16.194396 1.829881 179.262853 74.523129 179.974870 -3.959385 4.615700 -0.182947 0.124465 -0.529802 -0.000000 0.000000 0.000000 0.000000 0.000000 0.000000 0.000000 
2.896728 15.653555 0.376603 139.370772 89.972008 -179.233339 -8.245121 -2.260662 -1.034354 -13.721320 -7.610984 -82.909714 0.537163 5.545499 74.713858 4.632119 16.667793 -27.637976 -5.269300 0.000000 -7.667200 9.117957 0.620375 -5.290711 19.367753 -9.208826 -58.909315 2.586504 -5.755025 61.490378 -2.239949 -2.851347 -28.108947 1.864900 -0.000001 -39.549400 9.882806 0.262168 9.802270 2.228887 0.405641 -0.507379 -2.230982 0.346886 -0.137299 4.868268 -10.133217 -6.152238 -0.167193 0.002420 -0.232902 0.000000 0.000000 0.000000 10.765705 8.920638 2.360624 -70.599474 18.609700 29.592921 -0.141682 -84.728132 0.048111 -12.616402 1.674630 -0.167278 0.237430 0.192039 0.000000 0.000000 0.000000 0.000000 0.000000 0.000000 0.000000 -5.083729 -3.825960 -0.057650 48.791654 16.466231 1.579397 179.207675 73.767920 179.974379 -4.067485 4.413350 -0.180632 0.133288 -0.526374 -0.000000 0.000000 0.000000 0.000000 0.000000 0.000000 0.000000 
3.096088 15.656092 0.378184 -31.241261 89.528318 10.067850 -8.134795 -1.780288 -0.793713 -14.368743 -7.966064 -84.590971 0.196375 5.634613 72.271691 4.479194 15.340910 -27.183651 -4.740900 0.000000 -9.443800 9.096926 0.828410 -5.625332 19.281748 -9.822018 -57.578178 2.570917 -5.540835 61.271958 -2.106808 -2.385936 -27.746298 1.706799 0.000000 -41.639901 9.319823 0.542489 9.938062 2.115946 0.666372 -0.464207 -2.106911 0.602101 -0.109793 4.767118 -10.244558 -6.194817 -0.107022 0.007580 -0.243680 0.000000 0.000000 0.000000 10.680425 9.225388 2.321349 -70.154288 19.856371 30.241791 -0.127382 -85.124430 0.046723 -12.656902 1.597744 -0.159853 0.242481 0.186569 -0.000000 0.000000 0.000000 0.000000 0.000000 0.000000 0.000000 -5.249779 -3.835563 0.038727 46.666971 16.705993 1.344016 179.157102 73.107910 179.974211 -4.131947 4.225604 -0.176516 0.140661 -0.522334 -0.000000 0.000000 0.000000 0.000000 0.000000 0.000000 0.000000 
3.300283 15.655914 0.378723 -23.464194 89.276885 17.705262 -8.137604 -1.388523 -0.525715 -15.133156 -8.399366 -85.997687 -0.193939 5.675838 69.528145 4.298104 13.956301 -26.585152 -4.188300 -0.000001 -11.586000 8.978622 0.905842 -5.950153 19.140488 -10.559257 -56.231454 2.571029 -5.364564 61.026215 -1.974181 -1.904155 -27.391927 1.545800 0.000000 -43.700800 8.715607 0.743268 10.012159 2.004087 0.854852 -0.438602 -1.978592 0.787469 -0.075875 4.696728 -10.387014 -6.253723 -0.052092 0.012567 -0.257236 0.000000 0.000000 0.000000 10.636469 9.522407 2.274875 -69.735215 21.038715 30.895097 -0.113798 -85.520338 0.045419 -12.728541 1.507436 -0.151228 0.247691 0.181383 -0.000000 0.000000 0.000000 0.000000 0.000000 0.000000 0.000000 -5.351140 -3.917672 0.137580 44.577515 16.910608 1.137730 179.113019 72.544420 179.974379 -4.150157 4.061988 -0.171203 0.146295 -0.517953 -0.000000 0.000000 0.000000 0.000000 0.000000 0.000000 0.000000 
3.509172 15.653278 0.378717 -17.334335 89.255509 23.641998 -8.176328 -1.067494 -0.243120 -15.982515 -8.893626 -87.111397 -0.626932 5.651451 66.506812 4.099585 12.565307 -25.882447 -3.645900 0.000001 -14.006700 8.842044 0.876643 -6.261172 18.977942 -11.400486 -54.841755 2.594053 -5.234053 60.722734 -1.845261 -1.433060 -27.040654 1.388100 0.000001 -45.752800 8.166282 0.871552 10.038959 1.912071 0.981729 -0.426364 -1.852219 0.913257 -0.037223 4.656362 -10.559175 -6.327224 -0.000491 0.017488 -0.273185 0.000000 0.000000 0.000000 10.637502 9.811187 2.223729 -69.354545 22.152368 31.537609 -0.100958 -85.908364 0.044209 -12.827902 1.406588 -0.141603 0.253079 0.176565 -0.000000 0.000000 0.000000 0.000000 0.000000 0.000000 0.000000 -5.404742 -4.061152 0.235406 42.560885 17.082958 0.977327 179.076233 72.073684 179.974831 -4.127977 3.925743 -0.165194 0.150224 -0.513494 -0.000000 0.000000 0.000000 0.000000 0.000000 0.000000 0.000000 
3.722628 15.648408 0.378646 -12.564497 89.400893 28.166485 -8.211697 -0.783286 0.047174 -16.892692 -9.410694 -87.927180 -1.099075 5.560751 63.226806 3.894817 11.210543 -25.135867 -3.143200 -0.000000 -16.583500 8.728629 0.779692 -6.561385 18.808194 -12.310991 -53.376584 2.635813 -5.136266 60.347532 -1.723030 -0.996038 -26.682728 1.239500 -0.000001 -47.815000 7.697020 0.951533 10.036578 1.841001 1.068583 -0.422957 -1.732136 1.000257 0.003660 4.644892 -10.756595 -6.412424 0.049566 0.022438 -0.290968 0.000000 0.000000 0.000000 10.686747 10.094793 2.170044 -69.021511 23.201739 32.150103 -0.088806 -86.286820 0.043075 -12.948567 1.298370 -0.130976 0.258661 0.172081 -0.000000 0.000000 0.000000 0.000000 0.000000 0.000000 0.000000 -5.425420 -4.247432 0.330094 40.656164 17.225584 0.880140 179.047013 71.691050 179.975474 -4.076387 3.814009 -0.158990 0.152664 -0.509118 -0.000000 0.000000 0.000000 0.000000 0.000000 0.000000 0.000000 
